<?xml version="1.0" encoding="utf-8"?>
<svg viewBox="372.89996337890625 433.0999755859375 290.69989013671875 215.800048828125" width="290.69989013671875" height="215.800048828125" xmlns="http://www.w3.org/2000/svg"><g transform="matrix(1, 0, 0, 1, 0, 0)">
	<path class="st0" d="M652.6,516.4c-3.4-3.3-8.3-4.9-12.9-5.1c-2.5-0.1-4.9,0.3-7.3-0.1c-3.2-0.6-3-3.5-2.3-6.2&#10;&#9;&#9;c1.5-3,3.1-6,1.3-10.2c-2.7-6.6-8.4-4.8-14-4.1c-8.2,0.9-2.6-15.5-1.9-19.3c1-5.7,0.7-11.9-4.5-15.5c-12.2-8.4-24.3,8.9-30.1,17.6&#10;&#9;&#9;c-2.4,3.6-10.2,14.3-13.8,5c-0.9-2.3-0.8-5.2-3.2-6.3c-6.3-2.7-6.6,8.7-11.2,9.4c-3.9-0.3-2.6-10.1-9.5-10.2&#10;&#9;&#9;c-3.2-0.1-4.4,2.5-6.5,4.8c-2.7,2.9-7.5,10.5-10.7,3c-1.9-4.5-2.5-11.2-9.6-8.8c-2.8,1-4.9,3-7,5.2c-1.3,1.3-2.5,2.6-3.8,3.8&#10;&#9;&#9;c-1.3,1.2-2.4,1.3-3.3,0.9c-2.4-5.3-4-11.3-11.7-7.4c-1.7,0.9-2.9,2.7-4,4.3c-1.7,2.4-3.1,6.3-5.5,2.1c-2.4-4.3-2.4-9.8-3.6-14.5&#10;&#9;&#9;c-2.3-8.9-9.3-13-17.9-8.5c-4.4,2.3-5.6,7.6-6.1,12.1c-0.3,2.7,1.3,16.1-2.7,17.3c-1.6,0.4-3.7-5.8-6.7-5.6&#10;&#9;&#9;c-4.9,0.3-3.8,8.7-5.4,9.6c-2.8,1.5-6.4-9.4-11.3-7.7c-5.9,2-0.3,12.4-4.4,14c-2.6,2-12.4-6.8-17-2.2c-2.6,2.6-2.7,5.6-1.9,9&#10;&#9;&#9;c0.6,2.7,5.3,9.1,1.4,10.4c-6.1,2-17.1-0.4-18.8,8.2c-0.6,3.2,1,6.3,3.1,8.6c1,1.1,2.3,2.1,3.5,3.1c2.2,5.2-5.3,6.8-9.6,8.9&#10;&#9;&#9;c-3.3,1.6-6.1,3.6-7.6,7.1c-3.2,7.6,4.7,10.9,10,13.2c7.2,3,2.3,9-1.4,12.7c-2.9,2.9-5,5.6-5.9,9.6c-1.5,7.1,3,14.5,9.4,17.1&#10;&#9;&#9;c5.2,2.2,11.6,0,16.8-1.2c2.5-0.6,6.2-1.7,7.4,1.5c1.5,4.1-0.4,9.4-0.8,13.6c-0.6,7.3,0.3,12.2,7.8,13.8c4.7,1,9.7-6.8,14.1-6.5&#10;&#9;&#9;c2-0.1,3.6,4.9,5.6,6.4c1.7,1.3,4.4,1.3,6.3,0.4c3.6-1.7,5.2-9.7,9.3-8.2c3.1,0.7-0.2,10.4,5.2,14.1c2.2,1.5,4.6,0.5,6.4-0.8&#10;&#9;&#9;c2.1-1.6,3.8-3.7,5.5-5.7c0.4-0.5,3.6-4.6,4.4-3.5c0.7,1,0.9,2.5,1.1,3.7c1.1,5,1.7,9.4,5.5,13.1c3.5,3.4,8.8,3.6,13.1,1.8&#10;&#9;&#9;c9.2-3.8,4.5-20.5,13.4-21.7c3,0.6,4.2,6.4,6.5,8.6c2.6,2.3,6.2,1,8.4-0.9c2.3-1.9,3.9-3.4,6.5-0.6c1.4,1.5,2.8,2.1,4.9,1.9&#10;&#9;&#9;c4.5-0.3,7.9-11.9,12-6c0,0,0,0,0,0c1,1.7,1.6,3.9,3.4,5c2.2,1.4,4.8,2.8,7.5,2.2c4.7-1.1,6.5-6.2,7.9-10.2c2.2-6,6-13.1,11.6-4.5&#10;&#9;&#9;c1.7,2.6,4.5,6.8,7.5,7.2c3.6,2.1,8.2-1.8,10.2-5.3c1.3-2.2,1.6-8.3,4.7-8.6c4.2-0.4,7.6,4.2,10.8,6.4c10.2,7.1,18.2-8,13.1-16.3&#10;&#9;&#9;c-0.8-2.6-1.9-5.2-2.3-7.4c-1.6-7.6,8.9,0.3,10.6,1.5c2.2,1.6,5,3.1,7.9,2.6c6.7-1.1,9.2-6.6,7-12.8c-1.1-3.1-3.4-5.5-5.9-7.6&#10;&#9;&#9;c-2.1-1.9-1.1-3.7,0.4-5.6c4.8-2.6,7-9.7,1.8-13.5c-4.3-3.2-11.4-5.8-6.1-12.1c3.1-3.6,8-5.7,12-8.2&#10;&#9;&#9;C658,532.7,659.5,523.2,652.6,516.4z" style="fill: rgb(204, 204, 204); opacity: 1;"/>
	<path class="st0" d="M507.3,463.1c1.7,0.1,2.9-2.3,3.4-3.4c1.1-2.8,1.6-7.4-1.5-9c-3.2-1.7-5.1,1-5.2,3.9&#10;&#9;&#9;C503.8,457,504.5,462.9,507.3,463.1z" style="fill: rgb(204, 204, 204); opacity: 1;"/>
	<path class="st0" d="M560,464.2c1.4-1.9,2.7-5.2,0.7-7.1c-2-1.9-4-0.3-4.7,1.9c-0.5,1.8-1.3,6.4,0.8,7&#10;&#9;&#9;C558,466.4,559.4,464.9,560,464.2z" style="fill: rgb(204, 204, 204); opacity: 1;"/>
	<path class="st0" d="M628,478.5c2.2-1.5,4.8-4.6,3.4-7.4c-1.5-2.8-4.3-1.8-5.8,0.3c-1.2,1.7-3.7,6.4-1.8,7.9&#10;&#9;&#9;C625,480.2,627.1,479.1,628,478.5z" style="fill: rgb(204, 204, 204); opacity: 1;"/>
	<path class="st0" d="M447.4,461.5c1.5-0.3,2-2.6,2.2-3.7c0.4-2.6-0.2-6.7-3.3-7.4c-3.1-0.7-4.1,2-3.6,4.5&#10;&#9;&#9;C443.1,457,445,462,447.4,461.5z" style="fill: rgb(204, 204, 204); opacity: 1;"/>
	<path class="st0" d="M404.9,480.2c2.2,2,8.3,6.1,10.7,3.6c1.5-1.5,0.2-4.6-0.5-5.9c-1.7-3.3-5.7-7.4-9.8-5.8&#10;&#9;&#9;C401.2,473.7,402.2,477.7,404.9,480.2z" style="fill: rgb(204, 204, 204); opacity: 1;"/>
	<path class="st0" d="M392,491.9c-1.6-2.3-5-5-7.9-3.4c-2.9,1.6-1.8,4.6,0.5,6.1c1.8,1.3,6.9,3.8,8.4,1.7&#10;&#9;&#9;C393.9,495,392.6,492.9,392,491.9z" style="fill: rgb(204, 204, 204); opacity: 1;"/>
	<path class="st0" d="M655.8,491.4c2.2-0.4,5.4-1.9,5.2-4.6c-0.2-2.7-2.7-2.9-4.6-1.8c-1.5,0.9-5.1,3.7-4.1,5.6&#10;&#9;&#9;C652.9,491.7,654.9,491.5,655.8,491.4z" style="fill: rgb(204, 204, 204); opacity: 1;"/>
	<path class="st0" d="M532.2,443.8c1.3,0,2.1-1.8,2.4-2.7c0.8-2.1,1-5.6-1.5-6.8c-2.4-1.2-3.8,1-3.8,3.2&#10;&#9;&#9;C529.4,439.3,530.1,443.8,532.2,443.8z" style="fill: rgb(204, 204, 204); opacity: 1;"/>
	<path class="st0" d="M434.4,633.1c-1.1-0.5-2.4,0.8-3,1.4c-1.4,1.5-2.8,4.4-1.2,6.2c1.6,1.8,3.6,0.5,4.3-1.3&#10;&#9;&#9;C435.1,637.9,436.1,633.9,434.4,633.1z" style="fill: rgb(204, 204, 204); opacity: 1;"/>
	<path class="st0" d="M390.4,607.8c-2.1,0.9-4.9,3.2-4,5.9c0.9,2.6,3.4,2.2,5,0.6c1.3-1.3,4.2-5,2.7-6.5&#10;&#9;&#9;C393.2,606.7,391.3,607.4,390.4,607.8z" style="fill: rgb(204, 204, 204); opacity: 1;"/>
	<path class="st0" d="M405,638.9c-1.1-0.6-2.7,0.6-3.4,1.2c-1.7,1.5-3.6,4.5-2,6.6c1.6,2.2,3.8,1,4.9-0.9&#10;&#9;&#9;C405.3,644.2,406.8,640,405,638.9z" style="fill: rgb(204, 204, 204); opacity: 1;"/>
	<path class="st0" d="M651.1,573.4c-0.3,1.5,1.6,2.8,2.6,3.4c2.3,1.3,6.2,2.3,8.1-0.3c1.8-2.6-0.3-4.6-2.8-5&#10;&#9;&#9;C656.9,571.2,651.6,571,651.1,573.4z" style="fill: rgb(204, 204, 204); opacity: 1;"/>
	<path class="st0" d="M599.5,631.7c-0.1,2.1,0.5,5.1,2.9,5.5c2.4,0.4,3.1-1.8,2.5-3.7c-0.5-1.6-2.1-5.3-4-4.8&#10;&#9;&#9;C599.9,629,599.6,630.8,599.5,631.7z" style="fill: rgb(204, 204, 204); opacity: 1;"/>
	<path class="st0" d="M629.9,633.2c-1,0.6-0.7,2.4-0.5,3.2c0.5,2,2,4.6,4.4,4.3c2.4-0.3,2.4-2.6,1.3-4.2&#10;&#9;&#9;C634.1,635.1,631.5,632.2,629.9,633.2z" style="fill: rgb(204, 204, 204); opacity: 1;"/>
</g></svg>